<?xml version="1.0" encoding="UTF-8" standalone="no"?>
<svg
   version="1.1"
   id="Layer_1"
   x="0px"
   y="0px"
   viewBox="0 0 122.88 122.87"
   style="enable-background:new 0 0 122.88 122.87"
   xml:space="preserve"
   sodipodi:docname="cross.svg"
   inkscape:version="1.3 (0e150ed6c4, 2023-07-21)"
   xmlns:inkscape="http://www.inkscape.org/namespaces/inkscape"
   xmlns:sodipodi="http://sodipodi.sourceforge.net/DTD/sodipodi-0.dtd"
   xmlns="http://www.w3.org/2000/svg"
   xmlns:svg="http://www.w3.org/2000/svg"><defs
     id="defs15" /><sodipodi:namedview
     id="namedview13"
     pagecolor="#ffffff"
     bordercolor="#666666"
     borderopacity="1.0"
     inkscape:pageshadow="2"
     inkscape:pageopacity="0.0"
     inkscape:pagecheckerboard="0"
     showgrid="false"
     inkscape:zoom="3.4263855"
     inkscape:cx="86.82619"
     inkscape:cy="53.117199"
     inkscape:window-width="1549"
     inkscape:window-height="807"
     inkscape:window-x="251"
     inkscape:window-y="10"
     inkscape:window-maximized="0"
     inkscape:current-layer="g10"
     inkscape:showpageshadow="2"
     inkscape:deskcolor="#d1d1d1" /><style
     type="text/css"
     id="style2"><![CDATA[
	.st0{fill:#FF0000;}
	.st1{fill:#3C3C3C;}
]]></style><g
     id="g10"><path
       class="st0"
       d="M 33.04,38.05 C 52.94,57.24 67.48,77.44 82.16,103.02 89.88,94.63 91.81,91.8 85.82,79.74 76.94,61.86 52.38,36.19 37.92,30.84 36.19,30.2 34.6,29.88 33.25,29.92 c -0.79,0.03 -1.86,0.8 -2.58,1.81 -1.61,2.26 0.12,4.15 2.37,6.32 z"
       id="path4"
       style="fill:#000000;fill-opacity:1" /><path
       class="st0"
       d="m 88.74,15.17 c -20.9,28.84 -42.87,56.96 -70.18,82.96 9.9,8.8 13.67,8.41 23.79,-0.31 C 59.72,82.84 85.39,46.96 94.31,26.7 95.8,23.32 97.33,17.83 93.5,15.65 91.94,14.76 89.89,14.33 88.74,15.17 Z"
       id="path6"
       style="fill:#000000;fill-opacity:1" /><path
       class="st1"
       d="M 51.21,0.87 51.65,0.8 52,0.74 52.1,0.73 52.54,0.66 52.79,0.63 52.98,0.6 53.42,0.54 53.57,0.52 53.86,0.48 54.3,0.43 54.35,0.42 54.74,0.38 55.13,0.34 h 0.04 L 55.61,0.3 55.91,0.27 56.05,0.26 56.49,0.22 56.69,0.2 56.93,0.18 57.36,0.15 57.47,0.14 57.8,0.12 58.24,0.1 h 0.01 L 58.67,0.08 59.02,0.06 H 59.1 L 59.54,0.04 59.79,0.03 59.97,0.02 60.4,0.01 h 0.16 0.28 0.43 0.06 0.37 0.4 0.03 l 0.43,0.01 h 0.3 0.13 l 0.43,0.01 0.21,0.01 0.22,0.01 0.43,0.02 h 0.12 l 0.31,0.02 0.43,0.02 h 0.02 l 0.41,0.02 0.08,0.01 0.35,0.03 0.43,0.03 0.26,0.02 0.17,0.01 0.59,0.06 0.26,0.03 0.42,0.04 0.07,0.01 0.35,0.04 0.4,0.05 h 0.02 l 0.42,0.05 0.3,0.04 0.11,0.02 0.42,0.06 0.21,0.03 0.21,0.03 0.42,0.07 0.12,0.02 0.3,0.05 0.42,0.07 h 0.03 l 0.39,0.07 0.35,0.06 0.07,0.01 0.41,0.08 0.26,0.05 0.16,0.03 1.24,0.26 0.07,0.02 0.34,0.08 0.39,0.09 h 0.02 l 0.71,0.18 0.11,0.02 c 0.68,0.17 1.35,0.35 2.02,0.55 -2.82,3.12 -5.42,6.1 -7.82,8.95 -1.6,-0.29 -3.22,-0.51 -4.85,-0.65 v 0 c -1.26,-0.11 -2.52,-0.17 -3.79,-0.18 h -0.05 c -0.62,0 -1.24,0 -1.86,0.02 h -0.08 l -0.28,0.01 -0.28,0.01 v 0 l -0.28,0.01 -0.28,0.01 -0.09,0.01 -0.19,0.01 -0.45,0.03 -0.11,0.01 -0.54,0.04 H 57.5 l -0.28,0.02 -0.28,0.02 -0.06,0.01 -0.5,0.05 -0.18,0.02 -0.13,0.01 -0.5,0.05 h -0.02 l -0.05,0.01 -0.28,0.03 -0.28,0.03 -0.04,0.01 -0.25,0.03 -0.28,0.04 -0.12,0.02 -0.16,0.02 -0.28,0.04 -0.21,0.03 -0.08,0.01 -0.28,0.05 -0.28,0.05 h -0.01 l -0.64,0.11 H 52.3 l -0.63,0.12 h -0.01 l -0.63,0.13 h -0.01 l -0.63,0.14 h -0.01 l -0.62,0.14 h -0.01 l -0.62,0.15 h -0.01 l -0.62,0.16 h -0.01 l -0.62,0.17 h -0.01 l -0.61,0.17 h -0.01 l -0.61,0.18 h -0.01 l -0.6,0.19 h -0.01 l -0.6,0.2 H 45.4 l -0.59,0.2 H 44.8 L 44.21,13.5 H 44.2 l -0.59,0.22 H 43.6 l -0.58,0.22 h -0.01 l -1.17,0.47 h -0.01 c -8.95,3.72 -16.47,9.86 -21.89,17.5 -7.54,10.65 -11.04,24.14 -8.7,38 0.56,3.29 1.42,6.47 2.55,9.49 -2.03,3.83 -4.13,7.67 -6.28,11.48 L 7.36,90.61 7.33,90.55 6.65,89.24 6.64,89.22 6.63,89.21 6.5,88.94 6.3,88.53 6.22,88.38 6.08,88.1 5.96,87.85 5.94,87.81 5.81,87.53 5.68,87.25 5.64,87.17 5.42,86.68 5.33,86.48 5.29,86.4 5.04,85.82 5.02,85.78 4.55,84.65 4.44,84.37 4.43,84.35 4.2,83.77 4.16,83.66 3.89,82.95 3.87,82.89 3.65,82.29 3.63,82.23 3.55,81.99 3.38,81.5 3.34,81.38 3.24,81.08 3.14,80.78 V 80.77 L 3.04,80.48 2.75,79.56 2.67,79.3 2.66,79.26 2.57,78.95 2.48,78.64 2.45,78.56 2.38,78.33 2.29,78.02 2.22,77.8 2.2,77.7 2.12,77.39 2.04,77.08 2.03,77.05 1.96,76.77 1.88,76.46 1.84,76.3 1.8,76.15 1.72,75.84 1.65,75.55 V 75.53 L 1.58,75.22 1.5,74.87 1.47,74.76 1.42,74.55 1.35,74.23 1.3,73.99 1.28,73.91 1.21,73.59 1.15,73.27 1.14,73.22 1.1,72.95 1.04,72.63 1,72.44 0.98,72.31 0.92,71.99 0.86,71.67 C -1.96,54.95 2.26,38.65 11.37,25.85 20.49,13.03 34.49,3.69 51.21,0.87 Z m 5.9,111.3 v 0 c 1.88,0.16 3.79,0.22 5.71,0.16 h 0.08 l 0.28,-0.01 0.28,-0.01 v 0 l 0.28,-0.01 0.28,-0.01 0.09,-0.01 0.19,-0.01 0.45,-0.03 0.11,-0.01 0.54,-0.04 h 0.02 l 0.28,-0.02 0.28,-0.03 0.06,-0.01 0.5,-0.05 0.15,-0.02 0.13,-0.01 0.5,-0.05 h 0.02 l 0.05,-0.01 0.28,-0.03 0.28,-0.03 0.04,-0.01 0.25,-0.03 0.28,-0.04 0.12,-0.02 0.16,-0.02 0.28,-0.04 0.21,-0.03 0.08,-0.01 0.28,-0.04 0.28,-0.05 h 0.01 l 0.64,-0.11 h 0.01 l 0.63,-0.12 h 0.01 l 0.63,-0.13 h 0.01 l 0.63,-0.13 h 0.01 l 0.62,-0.14 h 0.01 l 0.62,-0.15 h 0.01 l 0.62,-0.16 h 0.01 l 0.62,-0.17 h 0.01 l 0.61,-0.17 h 0.01 l 0.61,-0.18 h 0.01 l 0.6,-0.19 h 0.01 l 0.6,-0.2 h 0.01 l 0.59,-0.2 h 0.01 l 0.59,-0.21 h 0.01 l 0.59,-0.21 h 0.01 l 0.58,-0.22 h 0.01 l 1.17,-0.47 h 0.01 c 8.94,-3.72 16.47,-9.86 21.89,-17.5 7.55,-10.62 11.05,-24.11 8.71,-37.97 -0.56,-3.29 -1.42,-6.47 -2.55,-9.49 2.03,-3.83 4.13,-7.67 6.28,-11.48 l 0.15,0.27 0.03,0.06 0.68,1.31 0.01,0.02 0.01,0.01 0.13,0.27 0.2,0.41 0.08,0.15 0.14,0.28 0.12,0.25 0.02,0.04 0.13,0.28 0.13,0.28 0.04,0.08 0.22,0.49 0.09,0.2 0.04,0.08 0.25,0.58 0.02,0.04 0.47,1.13 0.11,0.28 0.01,0.02 0.23,0.59 0.04,0.11 0.27,0.71 0.02,0.07 0.22,0.6 0.02,0.06 0.08,0.24 0.17,0.49 0.04,0.12 0.1,0.3 0.1,0.3 v 0.01 l 0.1,0.3 0.29,0.92 0.08,0.26 0.01,0.04 0.09,0.31 0.09,0.31 0.03,0.08 0.06,0.23 0.09,0.31 0.06,0.21 0.03,0.1 0.08,0.31 0.08,0.31 0.01,0.03 0.07,0.28 0.08,0.31 0.04,0.16 0.04,0.15 0.08,0.31 0.07,0.29 v 0.02 l 0.07,0.31 0.07,0.32 0.03,0.11 0.05,0.21 0.07,0.32 0.05,0.24 0.02,0.08 0.07,0.32 0.06,0.32 0.01,0.05 0.05,0.27 0.06,0.32 0.04,0.19 0.02,0.14 0.06,0.32 0.05,0.32 c 2.82,16.72 -1.4,33.01 -10.51,45.82 -9.11,12.81 -23.11,22.15 -39.83,24.97 l -0.44,0.07 -0.34,0.05 -0.1,0.02 -0.44,0.07 -0.25,0.04 -0.19,0.03 -0.44,0.06 -0.15,0.02 -0.29,0.04 -0.44,0.05 -0.05,0.01 -0.39,0.04 -0.39,0.04 h -0.04 l -0.44,0.04 -0.3,0.03 -0.14,0.01 -0.44,0.04 -0.2,0.02 -0.24,0.02 -0.43,0.03 -0.11,0.01 -0.33,0.02 -0.44,0.02 h -0.01 l -0.42,0.02 -0.35,0.02 H 63.8 l -0.43,0.02 -0.25,0.01 -0.18,0.01 -0.43,0.01 h -0.16 -0.28 -0.43 -0.06 -0.37 -0.4 -0.03 l -0.43,-0.01 -0.3,-0.01 h -0.13 l -0.43,-0.01 -0.21,-0.01 -0.22,-0.01 -0.43,-0.02 h -0.12 l -0.31,-0.02 -0.43,-0.02 h -0.02 l -0.41,-0.03 h -0.08 l -0.35,-0.03 -0.43,-0.03 -0.26,-0.02 -0.17,-0.01 -0.59,-0.05 -0.26,-0.03 -0.42,-0.04 -0.07,-0.01 -0.35,-0.04 -0.4,-0.05 h -0.02 l -0.42,-0.05 -0.3,-0.04 -0.11,-0.02 -0.42,-0.06 -0.21,-0.03 -0.21,-0.03 -0.42,-0.07 -0.12,-0.02 -0.3,-0.05 -0.42,-0.07 h -0.03 l -0.39,-0.07 -0.35,-0.06 -0.07,-0.01 -0.41,-0.08 -0.26,-0.05 -0.16,-0.03 -1.24,-0.26 -0.07,-0.02 -0.34,-0.08 -0.39,-0.09 h -0.02 l -0.71,-0.18 -0.1,-0.03 c -0.68,-0.17 -1.35,-0.36 -2.02,-0.55 2.82,-3.12 5.42,-6.1 7.82,-8.95 1.58,0.25 3.2,0.47 4.84,0.61 z"
       id="path8"
       style="display:none;fill:#302718;fill-opacity:1" /></g></svg>
